{"title":"Horrid Henry The Movie 2011 Rip XviD - FYA","uid":6843652,"size":1147302668,"categoryP":"video","categoryS":"movies","magnet":"?xt=urn:btih:31b43e8f6939a7fbb9db07a543cc0260394bd842&amp;dn=Horrid+Henry+The+Movie+2011+Rip+XviD+-+FYA&amp;tr=udp%3A%2F%2Ftracker.openbittorrent.com%3A80&amp;tr=udp%3A%2F%2Fopen.demonii.com%3A1337&amp;tr=udp%3A%2F%2Ftracker.coppersurfer.tk%3A6969&amp;tr=udp%3A%2F%2Fexodus.desync.com%3A6969","seeders":0,"leechers":0,"uploader":"sceneline","files":4,"time":1322244648,"description":"- &lt;a href=&quot;\nhttp://www.Speed.Cd&quot; rel=&quot;nofollow&quot; target=&quot;_NEW&quot;&gt;\nhttp://www.Speed.Cd&lt;/a&gt;      fast  and The Hottest Private Tracker on the net\n\n   signup is open now\n\nPlease Seed back to make the speed Faster!!!\n\n------------------nfo--------------------------\n-Horrid Henry The Movie 2011 Rip XviD - FYA\n\nimdb: &lt;a href=&quot;\nhttp://www.imdb.com/title/tt1684555/&quot; rel=&quot;nofollow&quot; target=&quot;_NEW&quot;&gt;\nhttp://www.imdb.com/title/tt1684555/&lt;/a&gt;\n\nplot:\nHorrid Henry finds himself doing things \nhe never ever thought he'd do, and then \nsome. \n\nNotes:\nOk here goes source was terrible and i mean \nterrible :P :P\n\n[IMG]http://i.imgur.com/UDfy3.png[/IMG]\n[IMG]http://i.imgur.com/8f8TO.png[/IMG]\n\nWho ever uploaded this piece of :shit: \nneeds a serious slap round the face\nWTF would make u do such a thing... :blink:\n\nso any way after working alittle bit of\nmagic on the video as we knew no 1 else\nwould be bother'd or able to :P :P\nwe fixed it up a little as below in screens \nyou will see :P :P\n\nso here you go something else for you\nrecode kings to re-encode and flood\nthe WWW. with :P ;) :D\n\nTAKE IT OR LEAVE IT JUS DONT BITCH \nLIKE A \nBIATCH \n\ninfo:\nVideo:\nID                               : 0\nFormat                           : MPEG-4 Visual\nFormat profile                   : Advanced Simple@L5\nFormat settings, BVOP            : 2\nFormat settings, QPel            : No\nFormat settings, GMC             : No warppoints\nFormat settings, Matrix          : Default (H.263)\nCodec ID                         : XVID\nCodec ID/Hint                    : XviD\nDuration                         : 1h 34mn\nBit rate                         : 1 486 Kbps\nWidth                            : 720 pixels\nHeight                           : 304 pixels\nDisplay aspect ratio             : 2.35:1\nFrame rate                       : 25.000 fps\nColor space                      : YUV\nChroma subsampling               : 4:2:0\nBit depth                        : 8 bits\nScan type                        : Progressive\nCompression mode                 : Lossy\nBits/(Pixel*Frame)               : 0.272\nStream size                      : 999 MiB (91%)\n\nAudio:\nID                               : 1\nFormat                           : MPEG Audio\nFormat version                   : Version 1\nFormat profile                   : Layer 3\nCodec ID                         : 55\nCodec ID/Hint                    : MP3\nDuration                         : 1h 34mn\nBit rate mode                    : Constant\nBit rate                         : 128 Kbps\nChannel(s)                       : 2 channels\nSampling rate                    : 48.0 KHz\nCompression mode                 : Lossy\nStream size                      : 86.1 MiB (8%)\nAlignment                        : Split accross interleaves\nInterleave, duration             : 24 ms (0.60 video frame)\n\nScreens:\n[IMG]http://i.imgur.com/KKx6t.png[/IMG]\n[IMG]http://i.imgur.com/wcWpm.png[/IMG]\n[IMG]http://i.imgur.com/yGYuQ.png[/IMG]\n[IMG]http://i.imgur.com/Be7O7.png[/IMG]\n[IMG]http://i.imgur.com/hYbuE.png[/IMG]\n\nGreetings to a very good friend ;)","torrent":{"xt":"urn:btih:31b43e8f6939a7fbb9db07a543cc0260394bd842","amp;dn":"Horrid+Henry+The+Movie+2011+Rip+XviD+-+FYA","amp;tr":["udp%3A%2F%2Ftracker.openbittorrent.com%3A80","udp%3A%2F%2Fopen.demonii.com%3A1337","udp%3A%2F%2Ftracker.coppersurfer.tk%3A6969","udp%3A%2F%2Fexodus.desync.com%3A6969"],"infoHash":"31b43e8f6939a7fbb9db07a543cc0260394bd842","infoHashBuffer":{"type":"Buffer","data":[49,180,62,143,105,57,167,251,185,219,7,165,67,204,2,96,57,75,216,66]},"announce":[],"urlList":[]}}